<svg width="770" height="686" viewBox="0 0 770 686" fill="none" xmlns="http://www.w3.org/2000/svg">
<path opacity="0.78" d="M737.684 0.912606C760.01 -5.06948 777.982 19.5869 765.455 39.0103L356.202 673.535C345.393 690.293 320.339 688.509 312.013 670.389L270.525 580.095C265.383 568.906 252.924 563.054 241.03 566.241L31.9361 622.267C6.69264 629.031 -10.0189 598.321 6.77399 580.723L296.187 358.441C303.221 353.039 305.567 343.48 301.833 335.435L247.633 218.676C241.367 205.176 222.696 203.84 214.571 216.31L149.358 316.39L97.2847 203.06C90.7508 188.839 98.5867 172.159 113.704 168.109L737.684 0.912606ZM639.103 118.86C644.921 109.931 633.846 99.6819 625.394 106.173L320.609 340.263C313.575 345.666 311.229 355.224 314.963 363.269L369.163 480.028C375.429 493.528 394.1 494.864 402.225 482.394L639.103 118.86Z" fill="url(#paint0_linear_2297_905)"/>
<defs>
<linearGradient id="paint0_linear_2297_905" x1="384.788" y1="2.3375e-05" x2="384.788" y2="685.106" gradientUnits="userSpaceOnUse">
<stop stop-color="white"/>
<stop offset="1" stop-color="white" stop-opacity="0.2"/>
</linearGradient>
</defs>
</svg>
