<svg width="370" height="247" viewBox="0 0 370 247" fill="none" xmlns="http://www.w3.org/2000/svg">
<g clip-path="url(#clip0_2292_849)">
<rect width="370" height="246.667" fill="#270A0A"/>
<mask id="mask0_2292_849" style="mask-type:alpha" maskUnits="userSpaceOnUse" x="-38" y="-101" width="447" height="448">
<rect width="447" height="447" transform="translate(-38 -100.002)" fill="url(#paint0_radial_2292_849)"/>
</mask>
<g mask="url(#mask0_2292_849)">
<path d="M228.403 342.882C214.518 345.581 200.174 346.998 185.5 346.998C150.933 346.998 118.199 339.149 88.9824 325.139L180.962 165.828L228.403 342.882ZM370.4 249.089C343.71 288.307 304.87 318.591 259.293 334.527L211.876 157.565L370.4 249.089ZM61.1953 309.268C21.4729 282.635 -9.23506 243.602 -25.3848 197.707L153.239 149.846L61.1953 309.268ZM405.215 82.3291C407.699 95.673 409 109.434 409 123.498C409 158.617 400.899 191.844 386.465 221.413L227.87 129.849L405.215 82.3291ZM144.965 118.935L-33.8008 166.834C-36.5554 152.814 -38 138.325 -38 123.498C-38 88.6033 -30.0032 55.576 -15.7422 26.1494L144.965 118.935ZM311.853 -60.8838C351.178 -33.8834 381.431 5.37148 397.105 51.373L219.579 98.9414L311.853 -60.8838ZM160.972 91.2246L0.243164 -1.57129C27.1861 -41.4021 66.6367 -72.0792 112.957 -87.9658L160.972 91.2246ZM185.5 -100.002C220.947 -100.002 254.467 -91.7495 284.243 -77.0615L191.877 82.9238L143.896 -96.1367C157.376 -98.6744 171.283 -100.002 185.5 -100.002Z" fill="url(#paint1_radial_2292_849)"/>
</g>
</g>
<defs>
<radialGradient id="paint0_radial_2292_849" cx="0" cy="0" r="1" gradientUnits="userSpaceOnUse" gradientTransform="translate(223.5 223.5) rotate(90) scale(223.5)">
<stop stop-color="white"/>
<stop offset="0.935473" stop-color="white" stop-opacity="0"/>
</radialGradient>
<radialGradient id="paint1_radial_2292_849" cx="0" cy="0" r="1" gradientUnits="userSpaceOnUse" gradientTransform="translate(185.5 123.498) rotate(90) scale(221.787 221.786)">
<stop stop-color="#C43131"/>
<stop offset="0.790575" stop-color="#C43131" stop-opacity="0"/>
</radialGradient>
<clipPath id="clip0_2292_849">
<rect width="370" height="246.667" fill="white"/>
</clipPath>
</defs>
</svg>
