<svg width="2956" height="686" viewBox="0 0 2956 686" fill="none" xmlns="http://www.w3.org/2000/svg">
<g clip-path="url(#clip0_3_22)">
<path d="M737.684 0.912605C760.01 -5.06948 777.982 19.5869 765.455 39.0103L356.202 673.535C345.393 690.293 320.339 688.509 312.013 670.389L270.525 580.095C265.383 568.906 252.924 563.054 241.03 566.241L31.9361 622.267C6.69264 629.031 -10.0189 598.321 6.77399 580.723L296.187 358.441C303.221 353.039 305.567 343.48 301.833 335.435L247.633 218.676C241.367 205.176 222.696 203.84 214.571 216.31L149.358 316.39L97.2847 203.06C90.7508 188.839 98.5867 172.159 113.704 168.109L737.684 0.912605ZM639.103 118.86C644.921 109.931 633.846 99.6819 625.394 106.173L320.609 340.263C313.575 345.666 311.229 355.224 314.963 363.269L369.163 480.028C375.429 493.528 394.1 494.864 402.225 482.394L639.103 118.86Z" fill="url(#paint0_linear_3_22)"/>
</g>
<path d="M884.874 566H812.614V239.907H906.181C997.894 379.794 1034.49 430.746 1054.87 469.191H1055.79C1052.55 434.914 1053.02 374.235 1053.02 320.504V239.907H1125.74V566H1037.73C1007.16 517.364 902.475 355.244 883.021 318.188H882.094C884.874 358.023 884.874 404.806 884.874 462.706V566ZM1453.85 364.971V428.43H1271.81V502.542H1474.23L1464.96 566H1192.6V239.907H1463.57V303.366H1271.81V364.971H1453.85ZM1742.2 491.888H1597.22L1568.97 566H1487.44L1618.53 239.907H1720.43L1858.47 566H1772.77L1742.2 491.888ZM1617.6 428.43H1720.43C1689.86 353.854 1675.04 315.409 1667.16 290.859H1666.7C1659.75 314.946 1642.15 364.508 1617.6 428.43ZM2026.99 440.473H1960.75V566H1882.47V239.907H2059.88C2135.38 239.907 2178.46 276.963 2178.46 333.01C2178.46 375.162 2153.91 399.711 2121.48 409.902C2134.92 415.46 2169.66 428.43 2169.66 486.793V503.005C2169.66 525.702 2169.66 550.714 2173.83 566H2092.77C2087.21 551.641 2086.74 532.186 2086.74 497.91V486.793C2086.74 453.906 2074.7 440.473 2026.99 440.473ZM1960.75 299.197V380.72H2042.28C2080.72 380.72 2097.4 366.824 2097.4 339.495C2097.4 313.556 2080.26 299.197 2042.74 299.197H1960.75ZM2227.17 566V239.907H2495.82V302.902H2306.37V377.014H2482.85V440.473H2306.37V566H2227.17ZM2532.97 239.907H2612.18V566H2532.97V239.907ZM2758.21 566V302.902H2643.34V239.907H2951.83V302.902H2837.42V566H2758.21Z" fill="url(#paint1_linear_3_22)"/>
<defs>
<linearGradient id="paint0_linear_3_22" x1="384.788" y1="2.19681e-05" x2="384.788" y2="685.106" gradientUnits="userSpaceOnUse">
<stop stop-color="white"/>
<stop offset="1" stop-color="white" stop-opacity="0.2"/>
</linearGradient>
<linearGradient id="paint1_linear_3_22" x1="1863" y1="240" x2="1863" y2="566" gradientUnits="userSpaceOnUse">
<stop stop-color="white"/>
<stop offset="1" stop-color="white" stop-opacity="0.2"/>
</linearGradient>
<clipPath id="clip0_3_22">
<rect width="770" height="686" fill="white"/>
</clipPath>
</defs>
</svg>
